HIERARCHY
ROOT pelvis
{
  OFFSET 0 100 0
  CHANNELS 6 Xposition Yposition Zposition Zrotation Xrotation Yrotation
  JOINT pelvis_right_femur
  {
    OFFSET -10.78128 -3.44521 -0.5502486
    CHANNELS 3 Zrotation Xrotation Yrotation
    JOINT right_femur_tibia
    {
      OFFSET -0.8047443 -44.0398 -0.1307829
      CHANNELS 3 Zrotation Xrotation Yrotation
      JOINT right_tibia_foot
      {
        OFFSET 3.006224 -47.83518 -5
        CHANNELS 3 Zrotation Xrotation Yrotation
        End Site
        {
          OFFSET 0 -5 15
        }
      }
    }
  }
  JOINT pelvis_left_femur
  {
    OFFSET 10.78128 -3.44521 -0.5502486
    CHANNELS 3 Zrotation Xrotation Yrotation
    JOINT left_femur_tibia
    {
      OFFSET 0.8047443 -44.0398 -0.1307829
      CHANNELS 3 Zrotation Xrotation Yrotation
      JOINT left_tibia_foot
      {
        OFFSET -4.370144 -48.10324 -4.275266
        CHANNELS 3 Zrotation Xrotation Yrotation
        End Site
        {
          OFFSET 0 -5 15
        }
      }
    }
  }
  JOINT pelvis_spine1
  {
    OFFSET 0 6.468898 -3.129235
    CHANNELS 3 Zrotation Xrotation Yrotation
    JOINT spine1
    {
      OFFSET 0 23.15396 4.99043
      CHANNELS 3 Zrotation Xrotation Yrotation
      JOINT spine2
      {
        OFFSET 0 20.79997 -5.064912
        CHANNELS 3 Zrotation Xrotation Yrotation
        JOINT neck
        {
          OFFSET 0 14.38658 9.616178
          CHANNELS 3 Zrotation Xrotation Yrotation
          End Site
          {
            OFFSET 0 20 0
          }
        }
      }
      JOINT right_manubrium
      {
        OFFSET -5.722621 16.35077 3.967754
        CHANNELS 3 Zrotation Xrotation Yrotation
        JOINT right_clavicle
        {
          OFFSET -13.16364 1.694482 -4.693211
          CHANNELS 3 Zrotation Xrotation Yrotation
          JOINT right_humerus
          {
            OFFSET -28.5034 -0.3100689 -2.792744
            CHANNELS 3 Zrotation Xrotation Yrotation
            JOINT right_radius
            {
              OFFSET -25.15693 0.02248979 -1.271978
              CHANNELS 3 Zrotation Xrotation Yrotation
              End Site
              {
                OFFSET -15 0 0
              }
            }
          }
        }
      }
      JOINT left_manubrium
      {
        OFFSET 5.722621 16.35077 3.967754
        CHANNELS 3 Zrotation Xrotation Yrotation
        JOINT left_clavicle
        {
          OFFSET 13.16364 1.694482 -4.693211
          CHANNELS 3 Zrotation Xrotation Yrotation
          JOINT left_humerus
          {
            OFFSET 29.39168 -1.063119 -2.237045
            CHANNELS 3 Zrotation Xrotation Yrotation
            JOINT left_radius
            {
              OFFSET 24.59957 -0.9528479 0.9047498
              CHANNELS 3 Zrotation Xrotation Yrotation
              End Site
              {
                OFFSET 15 -0 -0
              }
            }
          }
        }
      }
    }
  }
}
MOTION
Frames: 21
Frame Time: 0.0416666666667
70.70672 106.1456 3123.698 -0.7771086 -9.79306 -8.715736 5.296585 7.776333 4.002221 -0 12.12399 -0 -4.770019 -9.693718 -4.784407 -0.1023024 -15.21154 -4.313304 -0 46.81509 -0 -5.496456 -6.542923 19.30322 1.984539 -1.631515 7.645329 1.047209 14.61042 -7.333615 2.01376 19.38029 -1.154405 -3.427264 -21.61919 4.472979 -6.684093 -32.09572 11.30768 93.58219 21.51002 -9.700626 -0 0 27.4951 -18.48912 13.4426 11.92135 -0.3478154 -20.14145 -4.429675 -88.77188 9.845295 34.73523 0 0 -12.5457 7.197813 15.31572 2.593774
70.09541 105.6526 3129.359 -1.017586 -9.413214 -9.463641 5.240469 11.45291 3.677406 -0 11.81263 -0 -4.650446 -11.74337 -4.077697 1.118455 -19.20405 -3.612219 -0 37.31753 -0 -5.020389 -6.55956 19.69652 2.033403 -1.894229 7.955438 0.7472557 15.0351 -6.867973 2.023504 18.88549 -1.398886 -3.544107 -20.88765 4.289233 -5.825369 -33.02754 11.46451 92.12616 20.68298 -8.016469 -0 0 29.84301 -19.08658 15.11686 13.5218 -0.5838549 -19.68913 -4.825914 -89.84631 10.01361 37.0716 0 0 -11.61487 6.114292 15.0112 4.8765
69.59026 104.8353 3135.228 -1.273857 -8.667741 -10.13964 5.037115 14.44078 3.388077 -0 12.36416 -0 -4.26247 -13.34743 -3.311151 2.041877 -21.88838 -3.139784 -0 28.35841 -0 -4.550405 -6.350482 19.73833 2.078818 -2.169822 8.208886 0.4691661 15.38548 -6.443263 2.020095 18.44781 -1.50457 -3.565614 -20.29108 4.16482 -5.110052 -33.74068 11.60501 90.97418 19.84071 -6.723649 -0 0 31.70235 -19.7581 16.49915 15.00281 -0.7229551 -19.36043 -5.201142 -90.84632 10.16226 39.0436 0 0 -11.03486 5.032846 14.63945 7.081838
69.17644 103.9176 3141.416 -1.38666 -7.858337 -10.75932 4.48762 16.787 3.151335 -0 14.05494 -0 -3.720765 -13.93529 -2.570771 2.215438 -23.18036 -3.190799 -0 21.64347 -0 -4.160777 -6.183484 19.63498 2.116901 -2.421764 8.391779 0.2326669 15.6431 -6.093016 2.009188 18.11695 -1.477578 -3.502444 -19.8788 4.106615 -4.607938 -34.18732 11.70664 90.22124 19.08314 -5.914798 -0 0 32.927 -20.41481 17.47155 16.21245 -0.7737835 -19.17514 -5.528018 -91.68533 10.30817 40.50141 0 0 -10.80082 4.045912 14.23302 9.019267
68.82676 103.1278 3147.971 -1.25158 -7.325425 -11.29827 3.538809 18.50833 2.961319 -0 17.30242 -0 -3.246159 -12.85558 -1.991136 1.405789 -23.0998 -3.909545 -0 18.05985 -0 -3.861477 -6.318166 19.60543 2.14376 -2.61698 8.496082 0.05409613 15.8062 -5.846515 1.996547 17.92431 -1.345932 -3.376713 -19.66232 4.109942 -4.341656 -34.35533 11.76115 89.8969 18.50006 -5.613408 -0 0 33.45837 -20.96312 17.99356 17.03264 -0.7564216 -19.14344 -5.790955 -92.28168 10.46761 41.3437 0 0 -10.88959 3.244385 13.84763 10.52245
68.50893 102.6746 3154.848 -0.8791113 -7.285056 -11.66718 2.33548 19.43428 2.775334 -0 22.52474 -0 -3.045863 -9.78414 -1.674439 -0.2350333 -21.72735 -5.167605 -0 17.36844 -0 -3.548415 -6.848846 19.73898 2.1569 -2.736751 8.519572 -0.05551424 15.88775 -5.723886 1.986311 17.876 -1.149024 -3.214484 -19.61861 4.160748 -4.287884 -34.26522 11.77564 89.97033 18.14682 -5.78182 -0 0 33.32458 -21.33466 18.10009 17.40908 -0.6939861 -19.26776 -5.987729 -92.57557 10.64381 41.53346 0 0 -11.2732 2.697376 13.54925 11.48316
68.19851 102.7196 3161.908 -0.3862648 -7.715879 -11.73118 1.158704 19.16759 2.515748 -0 29.74317 -0 -3.200126 -5.04733 -1.624183 -2.233167 -19.1903 -6.618107 -0 18.4423 -0 -3.06203 -7.688275 19.92526 2.155891 -2.77855 8.46442 -0.0894805 15.90574 -5.734957 1.980555 17.95834 -0.9254938 -3.039731 -19.71 4.241532 -4.401856 -33.95691 11.76441 90.37774 18.04134 -6.348267 -0 0 32.60841 -21.49606 17.86434 17.34594 -0.60501 -19.54272 -6.122239 -92.53646 10.81984 41.08933 0 0 -11.92112 2.448876 13.39769 11.84778
67.89147 103.3305 3168.928 0.06659545 -8.378484 -11.38419 0.2820822 17.23356 2.129553 -0 38.18314 -0 -3.64865 0.4052174 -1.777327 -4.034794 -15.68114 -7.884221 -0 19.87652 -0 -2.324893 -8.686053 19.94082 2.142048 -2.75021 8.335642 -0.04358373 15.87234 -5.880783 1.979695 18.1496 -0.7049023 -2.871307 -19.90532 4.337532 -4.645235 -33.47442 11.73911 91.05227 18.17664 -7.235041 -0 0 31.40843 -21.44075 17.35449 16.87787 -0.4992848 -19.95365 -6.194661 -92.16163 10.96064 40.06353 0 0 -12.79558 2.526457 13.43403 11.59163
67.60551 104.4296 3175.671 0.3382437 -8.945985 -10.62865 -0.1588029 13.33593 1.674251 -0 46.22074 -0 -4.239479 5.354503 -2.085815 -5.244699 -11.47695 -8.733024 -0 20.55882 -0 -1.41894 -9.751704 19.62914 2.117499 -2.661989 8.140809 0.08461157 15.78597 -6.154417 1.982812 18.42942 -0.5048595 -2.722669 -20.19192 4.440564 -5.001727 -32.85708 11.70319 91.93932 18.53423 -8.372185 -0 0 29.81917 -21.17779 16.60716 16.04536 -0.3768452 -20.47144 -6.193473 -91.47485 11.02159 38.52788 0 0 -13.83975 2.949868 13.67135 10.69683
67.36632 105.7818 3181.967 0.3466277 -9.159145 -9.598061 -0.1928437 7.578661 1.306987 -0 51.8178 -0 -4.77919 8.742786 -2.541137 -5.739378 -6.931868 -9.13418 -0 19.96125 -0 -0.539004 -10.88565 19.01427 2.084237 -2.520467 7.891164 0.2944561 15.62808 -6.5392 1.98758 18.78247 -0.3318886 -2.603049 -20.57738 4.550104 -5.478088 -32.13876 11.65139 92.99576 19.09048 -9.695632 -0 0 27.93496 -20.72783 15.62268 14.88698 -0.2292159 -21.04437 -6.091544 -90.53041 10.96085 36.57704 0 0 -14.96032 3.730313 14.08561 9.149527
67.18657 107.0481 3187.77 0.1068711 -8.924937 -8.502347 0.04845599 0.537499 1.125565 -0 53.279 -0 -5.101888 9.984431 -3.116461 -5.652814 -2.421618 -9.204645 -0 18.14757 -0 0.1100908 -12.15185 18.24259 2.043455 -2.325622 7.602339 0.5795704 15.36596 -7.006332 1.990043 19.19785 -0.1831446 -2.518057 -21.0839 4.672405 -6.094513 -31.35024 11.57294 94.18261 19.81564 -11.14098 -0 0 25.8612 -20.12624 14.37713 13.44603 -0.04299418 -21.59409 -5.849349 -89.41712 10.75551 34.33809 0 0 -16.01822 4.856999 14.60836 6.960747
67.05025 107.89 3193.167 -0.2398442 -8.309307 -7.530568 0.3755236 -6.891131 1.002831 -0 49.9368 -0 -5.14353 9.132031 -3.702858 -5.284806 1.752075 -9.094682 -0 15.5897 -0 0.4007852 -13.65543 17.42057 1.995383 -2.072449 7.292494 0.9254122 14.96384 -7.515458 1.984816 19.66578 -0.04740267 -2.468147 -21.73623 4.817896 -6.867434 -30.51974 11.45767 95.4599 20.6685 -12.64366 -0 0 23.71449 -19.42809 12.84776 11.784 0.1937548 -22.02661 -5.429321 -88.25086 10.41798 31.96763 0 0 -16.84914 6.27433 15.13104 4.205668
66.91253 108.0752 3198.343 -0.4692595 -7.440695 -6.775357 0.5627774 -13.81542 0.6205884 -0 42.39031 -0 -4.93785 6.896385 -4.143529 -4.965631 5.436868 -8.884691 -0 12.91956 -0 0.3346842 -15.48706 16.53778 1.939984 -1.75917 6.978246 1.308612 14.40335 -8.020853 1.966316 20.17163 0.09323479 -2.445581 -22.54238 4.996128 -7.787903 -29.67189 11.30352 96.78466 21.59036 -14.14549 -0 0 21.60652 -18.70746 11.04926 9.993696 0.4831625 -22.2641 -4.821317 -87.14941 10.00052 29.62822 0 0 -17.32614 7.863647 15.53334 1.063245
66.71637 107.5361 3203.525 -0.4084603 -6.420787 -6.222632 0.4546495 -19.63182 -0.2615201 -0 32.2325 -0 -4.545998 4.408898 -4.351556 -4.907845 8.627905 -8.560834 -0 10.74326 -0 0.02208864 -17.59022 15.54756 1.878684 -1.400492 6.67221 1.698557 13.70728 -8.481656 1.93131 20.68879 0.2575973 -2.433297 -23.47022 5.208338 -8.803293 -28.83032 11.1222 98.10662 22.50347 -15.59729 -0 0 19.62547 -18.04601 9.070393 8.203746 0.8113795 -22.28702 -4.068259 -86.19957 9.576727 27.45674 0 0 -17.43962 9.45101 15.73422 -2.175501
66.41235 106.3668 3208.935 -0.05560078 -5.322427 -5.794663 0.1191882 -24.06779 -1.538718 -0 21.50241 -0 -4.033143 2.724619 -4.384067 -5.119036 11.40043 -8.084068 -0 9.579327 -0 -0.4344547 -19.6604 14.46437 1.816077 -1.036539 6.385137 2.060804 12.95176 -8.870778 1.881681 21.17512 0.4553699 -2.409313 -24.43304 5.440828 -9.814349 -28.02547 10.93898 99.36019 23.32023 -16.95048 -0 0 17.83384 -17.51227 7.088013 6.567198 1.149984 -22.15768 -3.271691 -85.43717 9.207808 25.54728 0 0 -17.33413 10.85037 15.73589 -5.154653
65.96485 104.7828 3214.746 0.422154 -4.246653 -5.403427 -0.1309031 -27.03009 -2.75873 -0 12.15396 -0 -3.497158 2.369203 -4.408266 -5.431894 13.82552 -7.476766 -0 9.896885 -0 -1.04706 -21.19461 13.36126 1.759718 -0.7258234 6.130048 2.362107 12.25212 -9.177315 1.825232 21.57899 0.6784154 -2.356415 -25.30178 5.664693 -10.69565 -27.30127 10.78457 100.4617 23.96344 -18.14477 -0 0 16.28538 -17.14235 5.336847 5.233581 1.464734 -21.99932 -2.564948 -84.85319 8.919776 23.95805 0 0 -17.2536 11.91991 15.62237 -7.542923
65.34825 103.0762 3221.056 0.7838129 -3.3592 -4.991861 0.1073322 -28.4528 -3.356609 -0 5.701807 -0 -3.06434 3.205069 -4.601094 -5.608025 15.88772 -6.845245 -0 12.17405 -0 -1.911198 -21.64257 12.33322 1.717452 -0.5218609 5.92344 2.576474 11.72398 -9.401131 1.773266 21.85447 0.8999751 -2.27209 -25.94613 5.844342 -11.333 -26.7134 10.68308 101.3201 24.38743 -19.10462 -0 0 15.04581 -16.93455 4.040863 4.315541 1.723553 -21.93424 -2.065598 -84.42038 8.709548 22.73346 0 0 -17.41172 12.59279 15.5074 -9.117352
64.55018 101.5805 3227.876 0.8249309 -2.86667 -4.569007 1.093212 -28.25767 -2.9424 -0 2.98457 -0 -2.839709 4.573872 -5.049902 -5.44658 17.40483 -6.334408 -0 16.86583 -0 -3.060189 -20.58666 11.51112 1.694218 -0.4485093 5.783041 2.689947 11.44244 -9.543265 1.73641 21.97714 1.081469 -2.17297 -26.28159 5.95013 -11.65786 -26.32035 10.64324 101.8566 24.58691 -19.74624 -0 0 14.20288 -16.86046 3.344485 3.866092 1.89767 -22.01827 -1.83514 -84.12326 8.570173 21.92796 0 0 -17.86421 12.86805 15.47085 -9.80005
63.58655 100.6227 3235.105 0.4758989 -2.937676 -4.234087 2.732407 -26.42652 -1.524175 -0 3.91248 -0 -2.86168 5.580787 -5.697149 -4.884364 17.99067 -6.048609 -0 24.18698 -0 -4.347356 -17.95897 11.08285 1.690798 -0.4912065 5.725087 2.701918 11.4227 -9.59906 1.721493 21.95087 1.181514 -2.091638 -26.29334 5.967305 -11.66242 -26.17322 10.6574 102.0194 24.59034 -19.9894 -0 0 13.85981 -16.88234 3.280361 3.874498 1.96047 -22.21251 -1.865639 -83.97441 8.508247 21.61672 0 0 -18.46195 12.78506 15.52714 -9.648061
62.51247 100.439 3242.545 -0.1391987 -3.60431 -4.152285 4.544324 -23.12656 0.4569425 -0 7.323068 -0 -3.087337 5.477664 -6.353753 -4.064528 17.14715 -5.978466 -0 33.72842 -0 -5.486089 -14.23565 11.23105 1.70493 -0.608296 5.761887 2.623169 11.62713 -9.559101 1.73068 21.80237 1.164365 -2.066943 -26.02774 5.89737 -11.39229 -26.30688 10.70713 101.7906 24.4449 -19.77222 -0 0 14.11074 -16.96528 3.780763 4.278403 1.892131 -22.40648 -2.093462 -84.00866 8.537631 21.88065 0 0 -18.91472 12.40848 15.63729 -8.820293
61.40655 101.0704 3249.929 -0.7480556 -4.723736 -4.458255 5.92052 -18.75785 2.367487 -0 11.32185 -0 -3.410806 4.027699 -6.793088 -3.27976 14.51909 -6.002652 -0 44.15284 -0 -6.23331 -10.38763 12.01406 1.73311 -0.7534074 5.898053 2.471945 11.98882 -9.416748 1.761959 21.56686 1.008834 -2.130237 -25.56174 5.753575 -10.92157 -26.73105 10.77242 101.184 24.19956 -19.06863 -0 0 15.00554 -17.08197 4.719879 4.988214 1.689521 -22.47621 -2.430415 -84.26007 8.659471 22.76657 0 0 -18.93425 11.82253 15.74508 -7.530118
